<?xml version="1.0" encoding="utf-8"?>
<!-- Generator: Adobe Illustrator 25.2.3, SVG Export Plug-In . SVG Version: 6.00 Build 0)  -->
<svg version="1.1" id="Layer_1" xmlns="http://www.w3.org/2000/svg" xmlns:xlink="http://www.w3.org/1999/xlink" x="0px" y="0px"
	 viewBox="0 0 201.3 47" style="enable-background:new 0 0 201.3 47;" xml:space="preserve">
<style type="text/css">
	.st0{fill:#FFFFFF;}
</style>
<path class="st0" d="M5.7,24.2c-1,0-1.9-0.2-2.6-0.5s-1.2-0.6-1.5-1s-0.5-0.6-0.5-0.6l0.6-0.9c0,0,0.2,0.2,0.5,0.6
	c0.3,0.3,0.7,0.6,1.3,0.9s1.3,0.4,2.2,0.4c1,0,1.8-0.3,2.4-0.9S9,20.9,9,20c0-0.6-0.1-1.1-0.4-1.5c-0.3-0.4-0.6-0.7-1.1-1
	c-0.4-0.2-1-0.5-1.7-0.8c-0.8-0.3-1.5-0.7-2-1c-0.5-0.3-0.9-0.7-1.3-1.2c-0.5-0.5-0.7-1.2-0.7-2c0-1.3,0.4-2.4,1.2-3.1
	c0.9-0.8,2-1.2,3.4-1.2c0.7,0,1.3,0.1,1.8,0.3c0.6,0.2,1,0.4,1.3,0.6C9.8,9.3,10,9.5,10,9.5l-0.2,1.1c0,0-0.2-0.2-0.5-0.4
	C9,10,8.6,9.8,8.1,9.6s-1-0.3-1.7-0.3c-0.9,0-1.6,0.2-2.1,0.7s-0.8,1.2-0.8,2c0,0.6,0.1,1.1,0.4,1.5s0.6,0.7,1.1,0.9
	c0.4,0.2,1,0.5,1.7,0.8c0.8,0.4,1.5,0.7,2,1c0.5,0.3,0.9,0.7,1.3,1.3c0.4,0.6,0.6,1.3,0.6,2.2c0,0.9-0.2,1.7-0.6,2.4
	c-0.4,0.7-1,1.2-1.7,1.6C7.5,24,6.7,24.2,5.7,24.2z M14,24V8.4h1.8V24H14z M20.4,24V8.4h1.9l8,12.9l-0.1-0.6V8.4h1.3V24h-1.6
	l-8.3-13.3l0,0l0.1,0.7V24H20.4z M41.3,24.2c-2,0-3.6-0.7-4.7-2.1c-1.1-1.4-1.7-3.4-1.7-5.9s0.6-4.5,1.8-5.9s2.9-2.1,5.2-2.1
	c0.7,0,1.4,0.1,2.1,0.3c0.7,0.2,1.3,0.4,1.8,0.6s0.7,0.4,0.7,0.4l-0.2,1.2c0,0-0.2-0.1-0.7-0.4c-0.5-0.2-1-0.4-1.6-0.6
	c-0.6-0.2-1.2-0.3-1.8-0.3c-1.8,0-3.1,0.6-4,1.7c-0.8,1.1-1.3,2.8-1.3,5.1c0,2.2,0.4,3.9,1.2,5.1c0.8,1.1,2,1.7,3.5,1.7
	c1.2,0,2.1-0.3,2.6-0.9s0.9-1.2,1.1-1.7v-3.5h-3.2v-1h4.7V24h-0.9l-0.5-1.7c-0.4,0.6-0.9,1-1.6,1.4S42.3,24.2,41.3,24.2z M49.2,24
	l5.3-15.6h2.1L61.7,24h-1.9l-1.6-4.8h-6.1L50.5,24H49.2z M52.4,18.2h5.5l-2.7-8.4L52.4,18.2z M64.5,8.4h3.7c1.6,0,2.8,0.4,3.7,1.2
	c0.9,0.8,1.3,2.1,1.3,3.7c0,1.2-0.2,2.2-0.7,3c-0.5,0.8-1.1,1.3-1.9,1.7c-0.8,0.3-1.6,0.5-2.4,0.5h-2V24h-1.8V8.4H64.5z M68.1,17.5
	c2.2,0,3.4-1.4,3.4-4.1c0-1.3-0.3-2.3-0.9-3s-1.4-1-2.5-1h-1.7v8.1H68.1z M82,24.2c-1.4,0-2.6-0.3-3.6-1c-1-0.6-1.8-1.6-2.3-2.8
	c-0.5-1.2-0.8-2.6-0.8-4.3c0-1.6,0.3-3.1,0.8-4.3s1.3-2.1,2.3-2.8c1-0.7,2.2-1,3.6-1s2.6,0.3,3.6,1c1,0.6,1.8,1.6,2.3,2.8
	s0.8,2.6,0.8,4.3c0,1.6-0.3,3.1-0.8,4.3c-0.5,1.2-1.3,2.1-2.3,2.8S83.4,24.2,82,24.2z M82,23.1c1.5,0,2.7-0.6,3.5-1.8
	c0.8-1.2,1.2-2.9,1.2-5.1s-0.4-3.9-1.2-5.1c-0.8-1.2-2-1.8-3.5-1.8s-2.7,0.6-3.5,1.8s-1.2,2.9-1.2,5.1s0.4,3.9,1.2,5.1
	C79.3,22.5,80.5,23.1,82,23.1z M92.1,8.4h3.8c1.6,0,2.8,0.4,3.7,1.2c0.9,0.8,1.3,2,1.3,3.5c0,1.2-0.3,2.2-0.8,3s-1.2,1.3-2.1,1.7
	l4,6.2h-2.1l-3.6-5.8H94V24h-1.8L92.1,8.4L92.1,8.4z M95.9,17.1c1,0,1.8-0.3,2.4-0.9c0.5-0.6,0.8-1.6,0.8-3c0-2.5-1.1-3.8-3.4-3.8
	H94v7.7H95.9z M105.1,24V8.4h8.4v1.2h-6.6v6h6v1.1h-6v6.2h7.1V24H105.1z M128.6,24.2c-2.2,0-3.8-0.7-5-2.1s-1.8-3.3-1.8-5.8
	c0-1.6,0.3-3.1,0.8-4.3c0.6-1.2,1.3-2.2,2.4-2.8c1-0.7,2.2-1,3.6-1c0.7,0,1.4,0.1,2.1,0.3c0.7,0.2,1.3,0.4,1.8,0.6
	c0.5,0.2,0.7,0.4,0.7,0.4l-0.2,1.2c0,0-0.2-0.1-0.7-0.4c-0.5-0.2-1-0.4-1.6-0.6c-0.6-0.2-1.2-0.3-1.8-0.3c-1.6,0-2.8,0.6-3.6,1.8
	c-0.9,1.2-1.3,2.9-1.3,5.1s0.4,3.9,1.3,5s2.2,1.7,3.8,1.7c0.8,0,1.6-0.2,2.2-0.5c0.6-0.4,1.1-0.7,1.5-1.1s0.6-0.6,0.6-0.7l0.7,0.8
	c0,0.1-0.2,0.4-0.6,0.8c-0.4,0.5-1,0.9-1.8,1.3C130.6,24,129.7,24.2,128.6,24.2z M142.1,24.2c-1.4,0-2.6-0.3-3.6-1
	c-1-0.6-1.8-1.6-2.3-2.8c-0.5-1.2-0.8-2.6-0.8-4.3c0-1.6,0.3-3.1,0.8-4.3s1.3-2.1,2.3-2.8c1-0.7,2.2-1,3.6-1s2.6,0.3,3.6,1
	c1,0.6,1.8,1.6,2.3,2.8s0.8,2.6,0.8,4.3c0,1.6-0.3,3.1-0.8,4.3c-0.5,1.2-1.3,2.1-2.3,2.8C144.7,23.9,143.5,24.2,142.1,24.2z
	 M142.1,23.1c1.5,0,2.7-0.6,3.5-1.8c0.8-1.2,1.2-2.9,1.2-5.1s-0.4-3.9-1.2-5.1s-2-1.8-3.5-1.8s-2.7,0.6-3.5,1.8s-1.2,2.9-1.2,5.1
	s0.4,3.9,1.2,5.1C139.4,22.5,140.6,23.1,142.1,23.1z M157.4,24.2c-1.7,0-3.1-0.5-4-1.4c-0.9-1-1.4-2.3-1.4-3.9V8.4h1.8v10.1
	c0,1.5,0.3,2.6,1,3.4c0.6,0.8,1.6,1.2,2.8,1.2c1.3,0,2.2-0.4,2.9-1.2c0.7-0.8,1-1.9,1-3.3V8.4h1.3v10.5c0,1.6-0.4,2.9-1.3,3.9
	C160.6,23.8,159.2,24.2,157.4,24.2z M167.1,8.4h3.8c1.6,0,2.8,0.4,3.7,1.2s1.3,2,1.3,3.5c0,1.2-0.3,2.2-0.8,3s-1.2,1.3-2.1,1.7
	l4,6.2h-2.1l-3.6-5.8h-2.4V24h-1.8L167.1,8.4L167.1,8.4z M170.9,17.1c1,0,1.8-0.3,2.4-0.9c0.5-0.6,0.8-1.6,0.8-3
	c0-2.5-1.1-3.8-3.4-3.8H169v7.7H170.9z M182.4,24V9.6H178V8.4h10.7v1.2h-4.5V24H182.4z M194.5,24.2c-1,0-1.9-0.2-2.6-0.5
	c-0.7-0.3-1.2-0.6-1.5-1s-0.5-0.6-0.5-0.6l0.6-0.9c0,0,0.2,0.2,0.5,0.6c0.3,0.3,0.7,0.6,1.3,0.9s1.3,0.4,2.2,0.4
	c1,0,1.8-0.3,2.4-0.9c0.6-0.6,0.9-1.3,0.9-2.2c0-0.6-0.1-1.1-0.4-1.5c-0.3-0.4-0.6-0.7-1.1-1c-0.4-0.2-1-0.5-1.7-0.8
	c-0.8-0.3-1.5-0.7-2-1c-0.5-0.3-0.9-0.7-1.3-1.2c-0.4-0.5-0.5-1.2-0.5-2.1c0-1.3,0.4-2.4,1.2-3.1c0.8-0.8,1.9-1.2,3.3-1.2
	c0.7,0,1.3,0.1,1.8,0.3c0.6,0.2,1,0.4,1.3,0.6c0.3,0.2,0.5,0.4,0.5,0.4l-0.2,1.1c0,0-0.2-0.2-0.5-0.4s-0.7-0.4-1.2-0.6
	c-0.5-0.2-1-0.3-1.7-0.3c-0.9,0-1.6,0.2-2.1,0.7s-0.8,1.2-0.8,2c0,0.6,0.1,1.1,0.4,1.5c0.3,0.4,0.6,0.7,1.1,0.9
	c0.4,0.2,1,0.5,1.7,0.8c0.8,0.4,1.5,0.7,2,1c0.5,0.3,0.9,0.7,1.3,1.3c0.4,0.6,0.6,1.3,0.6,2.2c0,0.9-0.2,1.7-0.6,2.4
	c-0.4,0.7-1,1.2-1.7,1.6C196.4,24,195.5,24.2,194.5,24.2z"/>
</svg>
